<?xml version="1.0" standalone="no"?>
<!DOCTYPE svg PUBLIC "-//W3C//DTD SVG 20010904//EN"
 "http://www.w3.org/TR/2001/REC-SVG-20010904/DTD/svg10.dtd">
<svg version="1.0" xmlns="http://www.w3.org/2000/svg"
 width="2048.000000pt" height="2048.000000pt" viewBox="0 0 2048.000000 2048.000000"
 preserveAspectRatio="xMidYMid meet">

<g transform="translate(0.000000,2048.000000) scale(0.100000,-0.100000)"
fill="#000000" stroke="none">
<path d="M5260 17208 c-30 -10 -77 -29 -105 -42 -27 -13 -75 -31 -105 -41 -30
-10 -60 -22 -66 -26 -6 -5 -35 -18 -65 -28 -30 -10 -76 -30 -103 -45 -27 -14
-55 -26 -62 -26 -7 0 -35 -13 -62 -29 -27 -16 -60 -32 -73 -36 -13 -4 -49 -23
-80 -41 -31 -19 -64 -34 -73 -34 -9 0 -16 -3 -16 -8 0 -4 -21 -18 -47 -32 -27
-13 -66 -36 -88 -50 -22 -15 -64 -42 -92 -61 -29 -19 -53 -37 -53 -41 0 -5 -6
-8 -12 -8 -13 0 -35 -17 -170 -134 -80 -70 -175 -165 -213 -214 -11 -14 -32
-39 -47 -55 -16 -17 -28 -33 -28 -37 0 -4 -11 -20 -25 -36 -22 -25 -66 -93
-94 -144 -4 -8 -15 -28 -24 -45 -53 -98 -108 -222 -128 -290 -9 -33 -29 -94
-43 -135 -37 -110 -86 -274 -86 -291 0 -9 -16 -56 -35 -105 -19 -49 -35 -95
-35 -102 0 -7 -16 -48 -35 -90 -20 -41 -34 -80 -32 -85 2 -6 42 24 89 66 48
43 89 77 91 77 3 0 19 12 35 28 16 15 40 35 53 46 99 76 139 110 139 118 0 4
6 8 13 8 7 0 28 16 47 35 19 19 38 35 43 35 5 0 20 10 32 23 12 12 44 40 71
62 64 51 343 330 374 374 14 18 39 50 55 70 17 20 35 43 40 52 21 33 81 114
108 145 15 17 27 36 27 40 0 5 16 27 35 49 19 22 35 43 35 47 0 8 50 77 99
138 15 19 31 45 35 58 4 12 11 22 16 22 4 0 27 29 51 65 24 36 47 65 51 65 4
0 15 16 24 35 9 19 20 35 25 35 5 0 15 13 24 30 8 16 25 40 38 53 12 13 49 58
82 101 33 43 68 82 77 87 10 5 18 16 18 24 0 8 14 24 30 37 17 12 30 26 30 31
0 11 244 253 262 260 7 2 11 6 8 9 -3 3 -30 -3 -60 -14z"/>
<path d="M14740 17219 c0 -5 4 -9 10 -9 10 0 260 -244 260 -255 0 -3 15 -21
33 -39 50 -50 104 -114 159 -188 28 -37 54 -68 58 -68 3 0 14 -16 23 -35 9
-19 21 -35 27 -35 6 0 18 -16 26 -35 8 -19 18 -35 22 -35 4 0 27 -29 51 -65
24 -36 48 -65 52 -65 5 0 11 -11 15 -24 3 -14 15 -33 26 -43 18 -15 70 -89
103 -143 6 -9 23 -33 39 -53 16 -19 34 -44 40 -55 18 -30 78 -113 109 -148 15
-17 27 -35 27 -39 0 -4 15 -24 33 -45 17 -21 43 -53 56 -71 30 -41 321 -332
375 -374 21 -16 51 -42 66 -57 15 -16 32 -28 37 -28 5 0 24 -16 43 -35 19 -19
40 -35 47 -35 7 0 13 -4 13 -9 0 -5 24 -26 53 -48 63 -49 101 -79 139 -115 16
-16 32 -28 35 -28 2 0 43 -34 90 -76 47 -41 87 -73 90 -70 4 3 -9 38 -27 77
-18 39 -36 85 -41 103 -4 17 -21 72 -38 121 -17 50 -45 137 -61 195 -17 58
-42 139 -56 180 -14 41 -34 102 -43 135 -10 33 -29 85 -43 115 -14 30 -33 74
-43 98 -10 24 -27 52 -37 64 -10 12 -18 29 -18 39 0 10 -4 20 -9 24 -6 3 -23
29 -40 58 -17 28 -42 65 -56 81 -14 16 -25 32 -25 36 0 4 -12 20 -27 37 -16
16 -37 41 -48 55 -38 49 -137 149 -215 216 -133 115 -155 132 -167 132 -7 0
-13 3 -13 8 0 4 -24 22 -53 41 -28 19 -70 46 -92 61 -22 14 -61 37 -87 50 -27
14 -48 28 -48 32 0 5 -8 8 -18 8 -9 0 -41 16 -71 35 -29 19 -58 35 -64 35 -7
0 -41 16 -77 35 -35 19 -69 35 -76 35 -6 0 -32 11 -56 25 -25 14 -69 34 -99
44 -30 11 -73 29 -96 40 -23 12 -47 21 -53 21 -10 0 -53 17 -125 50 -50 23
-135 48 -135 39z"/>
<path d="M10013 17213 c-7 -2 -41 -41 -77 -86 -35 -45 -77 -95 -92 -112 -41
-42 -118 -151 -151 -212 -15 -29 -34 -55 -43 -58 -16 -5 -60 -72 -110 -166
-14 -27 -34 -59 -44 -71 -20 -23 -60 -100 -133 -258 -24 -52 -48 -97 -53 -100
-5 -3 -23 -44 -40 -90 -88 -238 -113 -307 -118 -325 -3 -11 -9 -22 -13 -25
-12 -8 -72 -224 -101 -365 -32 -151 -46 -231 -54 -322 -4 -40 -11 -73 -15 -73
-5 0 -9 -133 -9 -295 0 -190 4 -295 10 -295 6 0 10 -14 10 -30 0 -105 118
-471 165 -515 6 -5 38 -52 71 -103 80 -127 207 -252 329 -325 51 -32 103 -57
114 -57 11 0 26 -7 35 -15 8 -9 34 -22 57 -31 144 -50 329 -66 476 -40 94 16
224 54 233 68 3 4 26 16 50 27 79 35 195 124 268 206 83 92 92 103 111 136 8
13 31 51 51 84 19 33 51 98 70 145 19 47 37 87 40 90 11 8 48 169 61 265 17
119 17 572 1 695 -21 162 -55 355 -63 360 -4 3 -10 23 -14 45 -17 103 -150
545 -167 556 -5 3 -24 48 -42 100 -42 116 -112 277 -129 293 -6 7 -23 37 -37
67 -27 59 -120 231 -130 239 -3 3 -21 29 -39 58 -19 30 -41 61 -50 69 -15 15
-25 32 -58 95 -8 15 -20 31 -28 35 -7 5 -32 37 -55 72 -39 59 -68 93 -191 222
-43 45 -65 55 -96 42z m238 -1743 c30 -41 62 -90 73 -109 10 -19 27 -42 38
-53 10 -10 31 -46 45 -79 14 -32 29 -59 33 -59 4 0 24 -37 45 -82 21 -46 42
-86 47 -89 6 -4 26 -53 46 -110 35 -103 36 -107 40 -293 2 -115 -1 -214 -8
-254 -11 -66 -64 -218 -78 -224 -4 -2 -25 -27 -47 -57 -43 -60 -111 -126 -153
-149 -83 -46 -118 -62 -151 -68 -20 -4 -39 -11 -42 -17 -8 -12 -190 -12 -198
1 -3 5 -19 12 -36 16 -56 14 -150 65 -202 109 -29 25 -57 47 -61 49 -21 7 -93
124 -119 191 -15 40 -30 74 -34 77 -39 28 -38 475 0 500 5 3 15 32 23 65 16
61 78 226 105 279 8 16 26 40 39 53 13 13 27 36 30 50 4 15 22 53 40 86 19 32
41 74 50 94 9 19 29 46 43 61 37 38 91 108 91 119 0 11 89 97 115 111 17 10
30 1 96 -66 41 -42 100 -111 130 -152z"/>
<path d="M3520 16344 c-78 -30 -221 -100 -267 -131 -19 -13 -37 -23 -42 -23
-4 0 -26 -16 -48 -35 -23 -19 -44 -35 -48 -35 -15 0 -240 -208 -302 -280 -107
-122 -123 -142 -123 -150 0 -4 -16 -27 -35 -51 -19 -24 -35 -47 -35 -52 0 -4
-11 -25 -25 -47 -26 -41 -103 -210 -112 -245 -2 -11 -17 -63 -33 -115 -16 -52
-38 -149 -49 -215 -62 -363 -65 -634 -10 -1200 25 -264 23 -484 -6 -685 l-5
-35 20 24 c11 13 20 30 20 38 0 8 8 27 19 41 10 15 28 45 39 67 11 22 32 54
46 70 14 17 26 35 26 42 0 6 4 13 8 15 5 2 23 23 40 47 47 65 101 128 165 192
31 32 57 62 57 68 0 6 10 16 23 22 12 7 38 28 58 48 74 73 96 92 194 164 55
41 110 84 123 96 12 11 35 29 50 38 15 10 32 23 37 29 6 6 51 44 100 85 50 41
95 79 102 84 157 129 446 430 549 570 16 22 35 44 41 48 7 4 13 14 13 22 0 8
14 29 30 47 17 18 30 36 30 40 0 11 53 92 63 96 4 2 7 10 7 19 0 8 16 42 35
74 19 33 35 64 35 69 0 4 13 34 29 66 16 33 36 84 44 114 9 30 27 94 40 141
17 60 26 122 30 205 3 65 3 108 1 96 -3 -13 -21 -50 -40 -82 -19 -32 -34 -64
-34 -70 0 -12 -50 -83 -62 -88 -5 -2 -8 -9 -8 -16 0 -17 -116 -153 -189 -221
-23 -22 -57 -55 -75 -72 -18 -18 -36 -33 -41 -33 -4 0 -23 -16 -42 -35 -19
-19 -40 -35 -48 -35 -8 0 -15 -4 -15 -9 0 -8 -146 -121 -156 -121 -3 0 -24
-16 -47 -35 -22 -19 -44 -35 -49 -35 -8 0 -37 -22 -70 -52 -10 -10 -22 -18
-26 -18 -5 0 -27 -16 -49 -35 -23 -19 -44 -35 -47 -35 -8 0 -138 -99 -151
-115 -5 -6 -15 -14 -21 -16 -26 -9 -173 -146 -254 -236 -84 -94 -210 -257
-210 -272 0 -5 -6 -16 -14 -24 -18 -18 -78 -124 -112 -197 -14 -30 -36 -77
-49 -105 -24 -50 -24 -50 -25 -17 0 18 16 79 35 136 19 57 35 110 35 117 0 8
6 25 13 39 7 14 21 50 31 80 10 30 34 93 52 140 19 47 34 93 34 101 0 8 14 55
30 105 17 49 34 112 39 139 4 28 22 113 39 190 17 77 35 163 40 190 19 107 55
265 84 370 17 61 33 121 35 135 8 40 71 197 120 295 45 89 57 109 130 214 39
55 200 221 214 221 4 0 20 11 35 25 33 31 19 30 -66 -1z"/>
<path d="M16473 16347 c15 -15 31 -27 35 -27 11 0 144 -131 184 -180 62 -78
122 -172 165 -260 53 -109 104 -235 113 -280 4 -19 21 -84 38 -145 29 -105 65
-263 84 -370 5 -27 23 -113 40 -190 17 -77 35 -162 39 -190 5 -27 22 -90 39
-139 16 -50 30 -98 30 -108 0 -10 4 -26 10 -36 15 -26 60 -144 60 -156 0 -6
13 -45 29 -86 49 -126 101 -298 101 -332 -1 -32 -2 -31 -26 22 -64 136 -130
262 -151 286 -13 15 -23 31 -23 36 0 14 -128 180 -210 271 -81 90 -228 227
-254 236 -6 2 -15 10 -21 16 -14 17 -143 115 -151 115 -4 0 -24 16 -45 35 -22
19 -44 35 -49 35 -6 0 -18 8 -28 18 -33 30 -62 52 -70 52 -5 0 -27 16 -49 35
-23 19 -44 35 -47 35 -10 0 -156 113 -156 121 0 5 -6 9 -14 9 -7 0 -28 16 -47
35 -19 19 -38 35 -43 35 -5 0 -24 15 -42 33 -18 17 -52 50 -75 72 -73 68 -189
204 -189 221 0 7 -3 14 -7 16 -13 5 -63 76 -63 88 0 6 -15 38 -34 70 -19 32
-37 69 -40 82 -2 12 -2 -31 1 -96 4 -83 13 -145 30 -205 13 -47 31 -111 40
-141 8 -30 28 -81 44 -114 16 -32 29 -62 29 -66 0 -5 16 -36 35 -69 19 -32 35
-66 35 -75 0 -9 3 -16 8 -16 4 0 16 -16 26 -35 11 -19 23 -35 28 -35 4 0 8 -8
8 -18 0 -10 14 -32 30 -50 17 -18 30 -39 30 -47 0 -8 6 -18 13 -22 7 -4 26
-26 42 -48 104 -142 384 -433 548 -570 7 -6 50 -41 97 -79 47 -38 95 -80 108
-93 13 -13 26 -23 30 -23 4 0 24 -15 44 -32 20 -18 83 -68 140 -110 58 -43
132 -104 164 -136 33 -32 68 -61 77 -65 10 -4 20 -15 24 -24 4 -10 34 -46 67
-80 73 -75 84 -86 144 -166 25 -34 50 -63 54 -65 5 -2 8 -9 8 -15 0 -7 12 -25
26 -42 14 -16 35 -48 46 -70 11 -22 29 -52 39 -67 11 -14 19 -33 19 -41 0 -8
9 -25 20 -38 l20 -24 -5 35 c-27 181 -31 435 -10 640 24 230 45 544 45 677 0
258 -44 600 -101 783 -16 52 -29 101 -29 107 0 7 -13 41 -29 75 -16 35 -38 83
-49 108 -30 64 -80 149 -108 183 -13 16 -24 32 -24 37 0 8 -15 26 -123 150
-62 72 -287 280 -302 280 -4 0 -25 16 -48 35 -22 19 -45 35 -51 35 -5 0 -17 6
-25 14 -30 26 -185 104 -261 131 -117 42 -119 42 -87 12z"/>
<path d="M6455 15759 c-11 -6 -33 -40 -50 -76 -16 -36 -34 -71 -40 -77 -14
-15 -51 -125 -70 -209 -23 -100 -52 -320 -66 -498 -15 -200 -7 -641 15 -799
28 -196 102 -561 116 -570 5 -3 11 -19 15 -35 12 -55 60 -200 67 -205 4 -3 25
-54 47 -114 22 -60 44 -112 48 -115 5 -3 19 -30 32 -60 44 -104 133 -281 141
-281 4 0 23 -24 40 -52 66 -107 123 -187 136 -192 8 -3 14 -10 14 -17 0 -6 29
-49 65 -94 36 -46 65 -88 65 -94 0 -5 8 -16 19 -23 23 -16 94 -105 141 -175
19 -29 40 -53 46 -53 5 0 23 -18 40 -41 45 -63 108 -141 145 -180 19 -20 61
-71 94 -113 33 -42 63 -76 67 -76 4 0 18 -16 31 -35 13 -19 53 -68 89 -107
122 -135 198 -225 198 -235 0 -6 15 -26 33 -45 60 -65 117 -132 117 -138 0 -4
15 -22 33 -41 35 -37 87 -104 87 -113 0 -7 90 -149 99 -156 10 -8 84 -137 132
-230 24 -47 47 -87 50 -90 3 -3 41 -77 84 -165 43 -88 84 -165 90 -172 7 -6
17 -26 24 -45 7 -18 28 -67 46 -108 18 -41 45 -108 61 -147 15 -40 30 -73 34
-73 4 0 15 -27 24 -60 9 -33 21 -60 25 -60 4 0 32 -81 61 -181 30 -99 61 -189
71 -200 9 -10 20 -38 25 -62 7 -39 8 -40 11 -12 2 17 12 66 23 110 30 121 76
341 90 425 7 41 16 77 20 80 16 11 80 442 109 740 37 376 45 522 45 895 1 431
-17 706 -69 1060 -22 146 -78 439 -86 445 -3 3 -10 21 -14 40 -23 114 -141
510 -154 520 -3 3 -21 46 -39 95 -66 181 -84 225 -92 225 -4 0 -15 19 -25 42
-9 24 -20 45 -23 48 -4 3 -41 72 -82 154 -41 82 -81 151 -87 153 -7 3 -13 10
-13 16 0 5 -22 45 -50 88 -27 43 -50 81 -50 84 0 4 -11 21 -25 39 -14 18 -25
38 -25 44 0 7 -4 12 -9 12 -5 0 -34 37 -64 83 -31 45 -74 102 -96 127 -22 25
-73 83 -113 130 -40 47 -86 96 -103 110 -16 13 -55 48 -86 77 -31 29 -58 53
-62 53 -3 0 -30 25 -60 54 -30 30 -75 68 -99 83 -25 16 -65 49 -89 73 -25 25
-58 52 -74 60 -41 20 -138 82 -150 96 -11 12 -179 99 -264 135 -30 13 -60 29
-66 36 -29 28 -366 144 -462 159 -24 3 -43 10 -43 14 0 5 -26 12 -57 15 -32 4
-65 8 -73 10 -8 2 -24 -1 -35 -6z m772 -1199 c34 -9 68 -24 76 -32 9 -8 42
-25 75 -37 33 -13 68 -30 79 -40 24 -22 121 -81 133 -81 5 0 13 -6 17 -13 9
-15 130 -107 141 -107 9 0 246 -233 297 -293 22 -26 50 -58 62 -72 30 -34 108
-200 123 -260 14 -58 14 -221 1 -292 -12 -62 -32 -117 -65 -179 -35 -67 -53
-86 -127 -133 -35 -22 -70 -45 -77 -51 -52 -44 -247 -73 -343 -50 -72 17 -100
32 -156 85 -27 25 -51 45 -56 45 -9 0 -77 75 -92 100 -32 56 -71 110 -81 110
-13 0 -33 40 -69 133 -80 214 -99 455 -75 966 10 213 16 237 54 225 12 -4 49
-15 83 -24z"/>
<path d="M13495 15650 c-84 -15 -152 -31 -277 -67 -10 -3 -18 -9 -18 -13 0 -4
-19 -13 -42 -20 -80 -26 -359 -146 -368 -159 -4 -6 -67 -42 -188 -107 -23 -12
-59 -40 -80 -61 -21 -21 -51 -45 -68 -53 -42 -22 -155 -107 -171 -130 -8 -11
-19 -20 -25 -20 -6 0 -34 -21 -62 -47 -165 -151 -276 -256 -276 -262 0 -3 -25
-33 -56 -65 -30 -33 -69 -80 -86 -105 -18 -25 -35 -47 -40 -49 -7 -3 -73 -101
-116 -173 -12 -20 -32 -47 -45 -60 -13 -13 -36 -45 -50 -71 -14 -25 -36 -63
-50 -85 -13 -21 -36 -63 -51 -93 -15 -30 -31 -57 -35 -60 -10 -6 -70 -123
-107 -207 -15 -35 -30 -63 -34 -63 -4 0 -11 -12 -15 -27 -3 -15 -10 -30 -14
-33 -13 -9 -90 -211 -136 -355 -16 -49 -31 -92 -35 -95 -23 -18 -170 -653
-170 -735 0 -13 -4 -25 -9 -27 -5 -1 -18 -75 -30 -163 -52 -403 -71 -876 -52
-1285 17 -354 65 -870 82 -870 5 0 9 -12 9 -27 0 -29 73 -470 95 -573 49 -235
68 -316 75 -320 9 -7 30 -91 31 -127 0 -22 4 -17 20 27 24 70 71 216 94 298
10 34 22 62 26 62 4 0 10 14 14 30 4 17 10 30 14 30 4 0 13 15 19 33 60 178
106 297 120 307 4 3 16 25 27 50 42 100 146 315 154 320 5 3 43 75 86 160 42
85 83 159 91 163 8 4 14 13 14 19 0 6 22 46 49 88 27 42 52 86 55 97 3 11 20
35 37 54 17 19 51 64 74 100 23 36 68 90 99 120 31 29 56 58 56 62 0 12 122
157 132 157 4 0 8 6 8 13 0 12 59 82 180 217 32 36 71 82 87 103 15 22 52 64
81 95 29 30 69 79 87 107 19 28 47 62 62 76 30 27 83 89 132 154 17 22 42 54
55 70 28 34 146 188 161 212 6 8 22 29 38 45 15 17 52 68 82 114 30 46 65 94
78 107 25 28 147 239 147 255 0 6 4 12 8 14 15 6 116 246 152 361 6 20 17 37
24 37 13 0 67 170 101 315 24 105 65 314 65 335 0 10 4 20 9 22 5 2 18 64 28
138 26 194 26 749 -1 965 -10 83 -22 152 -26 155 -4 3 -11 30 -15 60 -20 156
-124 452 -164 463 -9 3 -23 7 -31 10 -8 3 -60 -3 -115 -13z m-516 -1174 c24
-29 40 -662 21 -844 -12 -111 -36 -233 -48 -241 -5 -3 -19 -37 -31 -76 -25
-76 -43 -116 -64 -137 -8 -8 -22 -28 -31 -45 -9 -18 -43 -60 -76 -95 -33 -35
-60 -67 -60 -71 0 -13 -70 -69 -118 -95 -26 -14 -49 -28 -52 -32 -10 -15 -85
-30 -146 -30 -67 0 -165 16 -173 28 -4 4 -35 21 -71 36 -74 33 -150 82 -150
97 0 9 -46 73 -76 106 -11 11 -43 108 -58 175 -3 14 -6 74 -7 133 -1 97 2 116
32 199 18 50 36 93 39 96 8 6 100 149 100 155 0 8 259 265 267 265 4 0 37 27
72 60 36 33 67 60 71 60 4 0 44 25 90 55 46 30 90 55 97 55 7 0 21 9 30 20 10
11 51 34 93 51 41 17 77 35 80 39 5 7 124 47 146 49 6 1 17 -5 23 -13z"/>
<path d="M2237 15190 c-15 -16 -27 -33 -27 -36 0 -4 -15 -23 -32 -44 -18 -21
-49 -61 -68 -90 -19 -28 -50 -72 -67 -96 -18 -24 -33 -49 -33 -54 0 -5 -16
-30 -35 -56 -19 -25 -35 -50 -35 -56 0 -6 -11 -26 -25 -44 -14 -18 -37 -60
-51 -93 -15 -34 -30 -61 -35 -61 -4 0 -11 -15 -14 -32 -4 -18 -18 -49 -30 -68
-13 -20 -30 -58 -39 -84 -9 -27 -26 -69 -37 -95 -31 -71 -34 -79 -69 -191 -19
-58 -37 -125 -41 -150 -3 -25 -19 -101 -35 -170 -27 -123 -27 -130 -28 -460 0
-330 1 -337 28 -460 16 -69 32 -147 37 -174 14 -79 118 -414 131 -422 5 -3 8
-16 8 -29 0 -14 11 -48 24 -77 13 -29 29 -71 36 -93 7 -22 23 -67 36 -100 12
-33 35 -95 49 -138 14 -42 33 -89 41 -105 7 -15 14 -34 14 -42 0 -8 16 -62 35
-120 44 -133 105 -356 105 -383 0 -12 10 -82 22 -156 21 -129 34 -148 37 -55
1 17 15 76 32 130 16 55 34 115 39 134 13 56 118 292 132 298 4 2 8 13 8 25 0
11 6 28 14 36 7 9 24 36 37 61 13 25 46 82 74 128 27 45 57 95 66 110 28 51
113 177 131 196 10 11 18 24 18 29 0 5 12 24 28 42 31 39 79 105 105 148 10
16 24 36 33 44 8 8 19 24 26 36 6 12 26 40 45 63 18 23 33 45 33 49 0 4 14 23
30 42 17 18 30 40 30 48 0 8 6 18 14 22 7 4 31 35 52 68 21 33 46 69 56 79 10
11 18 23 18 28 0 4 16 30 35 57 19 26 35 52 35 56 0 4 13 25 28 48 52 75 102
165 102 180 0 9 4 18 9 22 13 7 61 95 61 109 0 7 16 41 35 76 19 36 35 72 35
82 0 9 15 54 34 100 18 45 38 101 44 123 5 22 19 74 30 115 41 152 98 428 90
436 -5 5 -68 -105 -68 -119 -1 -7 -14 -28 -30 -47 -17 -19 -30 -38 -30 -42 0
-20 -140 -163 -335 -343 -229 -211 -515 -502 -615 -625 -25 -30 -50 -59 -57
-63 -7 -4 -13 -14 -13 -21 0 -7 -11 -24 -24 -37 -23 -23 -31 -35 -90 -135 -16
-27 -36 -60 -46 -74 -19 -29 -110 -217 -110 -229 0 -5 -16 -57 -35 -115 -19
-59 -35 -122 -35 -141 0 -38 -35 -232 -51 -282 -6 -18 -14 -33 -19 -33 -11 0
-23 37 -16 49 3 5 10 100 16 212 5 112 19 308 31 434 24 262 22 555 -6 750 -9
61 -20 157 -25 215 -5 58 -20 182 -33 275 -56 383 -52 813 7 1018 14 48 26 92
26 99 0 6 16 44 35 84 19 40 35 76 35 81 0 5 16 32 35 62 19 29 35 57 35 62 0
17 -17 9 -43 -21z"/>
<path d="M17780 15211 c0 -5 16 -33 35 -62 19 -30 35 -57 35 -62 0 -5 16 -41
35 -81 19 -40 35 -78 35 -84 0 -7 12 -51 26 -99 62 -213 63 -590 4 -1058 -62
-486 -72 -586 -77 -775 -4 -152 0 -245 16 -425 12 -126 26 -322 32 -434 5
-112 12 -208 15 -213 7 -11 -5 -48 -16 -48 -5 0 -13 15 -19 33 -15 48 -51 247
-51 284 0 17 -16 80 -35 139 -19 58 -35 110 -35 115 0 12 -91 200 -110 229
-10 14 -30 47 -46 74 -59 100 -67 112 -90 135 -13 13 -24 30 -24 37 0 7 -6 17
-13 21 -7 4 -32 33 -57 63 -51 63 -100 118 -182 204 -32 34 -58 64 -58 68 0 5
-6 8 -13 8 -8 0 -20 11 -27 25 -7 14 -17 25 -21 25 -4 0 -47 39 -95 88 -49 48
-148 141 -219 207 -195 180 -335 323 -335 343 0 4 -13 23 -30 42 -16 19 -29
40 -30 47 0 14 -63 124 -68 119 -8 -8 49 -284 90 -436 11 -41 25 -93 30 -115
6 -22 24 -73 40 -114 17 -41 36 -94 43 -117 7 -24 25 -64 39 -90 14 -25 26
-52 26 -59 0 -15 48 -103 61 -110 5 -4 9 -13 9 -22 0 -15 50 -105 102 -180 15
-23 28 -44 28 -48 0 -4 16 -30 35 -56 19 -27 35 -53 35 -57 0 -5 8 -17 18 -28
10 -10 35 -46 56 -79 21 -33 45 -64 52 -68 8 -4 14 -14 14 -22 0 -8 14 -30 30
-48 17 -19 30 -38 30 -42 0 -4 15 -26 33 -49 18 -23 41 -54 51 -69 9 -16 26
-37 37 -48 10 -10 19 -26 19 -34 0 -7 6 -18 13 -22 13 -8 84 -106 121 -167 10
-17 21 -33 25 -36 8 -5 95 -137 120 -182 9 -15 39 -65 66 -110 28 -46 61 -103
74 -128 13 -25 30 -52 37 -61 8 -8 14 -20 14 -25 0 -5 15 -40 34 -79 53 -112
98 -217 106 -255 5 -19 22 -78 39 -130 17 -51 31 -110 32 -130 3 -97 15 -80
37 51 12 74 22 144 22 156 0 26 58 239 106 388 39 124 42 130 94 275 20 58 45
128 55 155 10 28 32 88 50 135 39 102 72 197 92 265 8 28 29 95 46 150 17 55
34 120 38 145 3 25 18 98 33 163 23 101 27 150 32 345 10 377 -15 593 -103
887 -37 126 -40 132 -72 206 -11 26 -28 68 -37 95 -9 26 -27 65 -40 86 -13 20
-24 46 -24 57 0 11 -7 27 -15 35 -9 8 -27 41 -41 72 -14 31 -36 71 -49 89 -14
17 -25 36 -25 42 0 5 -16 32 -35 59 -19 27 -35 52 -35 56 0 4 -15 28 -32 52
-18 24 -49 67 -68 96 -34 50 -65 92 -124 164 -27 35 -46 46 -46 27z"/>
<path d="M4223 13158 c-13 -21 -16 -316 -3 -418 14 -113 50 -303 59 -310 4 -3
20 -48 35 -100 16 -52 40 -124 54 -160 57 -151 83 -215 90 -220 4 -3 17 -25
30 -50 90 -174 116 -219 141 -249 16 -19 35 -46 42 -60 25 -49 114 -173 154
-215 49 -49 111 -126 116 -143 7 -22 343 -373 374 -390 7 -5 49 -41 92 -80 98
-91 208 -178 251 -198 17 -9 32 -19 32 -24 0 -4 30 -29 68 -56 37 -27 69 -52
72 -55 3 -3 21 -17 40 -30 19 -13 40 -29 45 -36 12 -13 101 -74 109 -74 10 0
151 -92 154 -101 2 -5 8 -9 13 -9 5 0 37 -17 71 -38 35 -21 99 -55 143 -76 44
-21 82 -42 85 -45 7 -10 167 -91 260 -131 41 -18 77 -36 80 -40 3 -5 30 -21
60 -37 195 -105 237 -128 250 -140 69 -60 86 -73 100 -73 16 -1 57 -30 140
-100 29 -25 87 -74 129 -110 128 -108 287 -265 417 -410 27 -30 68 -74 92 -99
23 -24 42 -47 42 -51 0 -4 12 -20 27 -36 43 -47 123 -151 123 -161 0 -5 20
-31 46 -58 25 -28 57 -70 71 -95 39 -66 104 -163 117 -175 15 -13 52 -84 61
-115 14 -52 38 -110 45 -110 4 0 19 57 35 128 15 70 31 129 35 132 26 18 54
356 46 552 -6 164 -33 399 -45 408 -5 3 -11 25 -15 50 -21 136 -136 546 -158
560 -4 3 -23 46 -42 95 -64 169 -120 294 -136 305 -3 3 -38 68 -76 144 -38 77
-79 151 -92 165 -13 15 -30 38 -38 54 -8 15 -19 27 -24 27 -6 0 -10 5 -10 10
0 10 -86 143 -116 179 -7 9 -40 54 -73 101 -32 47 -70 96 -83 110 -48 52 -108
129 -108 140 0 6 -32 45 -71 85 -39 40 -79 84 -88 98 -23 34 -246 257 -257
257 -6 0 -35 26 -65 58 -30 32 -84 81 -119 110 -36 28 -85 72 -109 97 -25 25
-50 45 -56 45 -6 0 -25 15 -42 33 -47 50 -111 103 -203 168 -47 33 -94 67
-105 76 -20 17 -173 113 -180 113 -9 0 -105 64 -105 70 0 4 -17 15 -37 26 -21
10 -55 30 -77 42 -21 13 -70 40 -110 59 -39 20 -75 42 -81 49 -12 16 -307 154
-329 154 -9 0 -16 4 -16 8 0 5 -19 17 -42 28 -24 10 -45 21 -48 24 -7 9 -129
57 -235 93 -49 16 -92 33 -95 36 -5 7 -162 58 -220 73 -108 27 -350 79 -391
84 -27 4 -49 10 -49 14 0 8 -170 30 -239 30 -29 0 -53 -5 -58 -12z m1187 -869
c36 -5 67 -14 68 -20 2 -5 11 -9 20 -9 58 -1 401 -133 426 -164 6 -7 31 -24
56 -37 25 -13 47 -26 50 -29 3 -3 21 -17 40 -30 48 -32 157 -147 185 -195 34
-58 73 -181 77 -249 8 -108 -18 -218 -68 -283 -13 -17 -24 -36 -24 -41 0 -16
-44 -49 -105 -78 -55 -27 -69 -29 -170 -29 -90 0 -120 4 -167 22 -87 34 -158
74 -158 88 0 8 -6 15 -14 17 -8 2 -44 31 -80 66 -68 66 -119 152 -187 317 -18
44 -36 82 -40 85 -29 19 -150 526 -136 564 5 13 22 16 84 16 43 0 107 -5 143
-11z"/>
<path d="M15600 13050 c-63 -9 -160 -27 -215 -39 -55 -12 -115 -25 -132 -28
-18 -3 -33 -10 -33 -14 0 -5 -8 -9 -17 -9 -27 0 -387 -112 -391 -121 -2 -4
-25 -15 -53 -24 -27 -9 -49 -21 -49 -26 0 -5 -6 -9 -12 -9 -24 0 -378 -146
-388 -160 -3 -4 -59 -34 -125 -67 -143 -72 -185 -95 -185 -105 0 -5 -5 -8 -10
-8 -6 0 -45 -21 -88 -47 -43 -27 -95 -57 -115 -67 -20 -10 -51 -32 -69 -49
-18 -16 -48 -36 -67 -44 -64 -27 -197 -124 -290 -210 -25 -24 -51 -43 -56 -43
-6 0 -44 -31 -85 -70 -41 -38 -80 -70 -86 -70 -6 0 -47 -36 -90 -80 -44 -44
-84 -80 -91 -80 -18 0 -443 -430 -443 -449 0 -9 -28 -46 -62 -82 -35 -36 -90
-102 -122 -147 -33 -45 -65 -83 -73 -86 -7 -3 -13 -10 -13 -15 0 -6 -27 -48
-60 -94 -33 -47 -60 -88 -60 -93 0 -5 -12 -23 -27 -41 -16 -17 -37 -41 -48
-54 -25 -29 -91 -142 -112 -191 -9 -21 -19 -38 -24 -38 -8 0 -159 -302 -159
-319 0 -6 -4 -11 -8 -11 -14 0 -145 -338 -158 -404 -3 -20 -10 -36 -14 -36 -9
0 -61 -195 -89 -330 -42 -206 -55 -348 -55 -580 0 -234 12 -359 54 -535 11
-44 24 -106 30 -137 6 -32 15 -58 20 -58 5 0 14 16 21 35 7 19 16 35 20 35 4
0 10 18 14 40 4 22 28 73 53 113 26 39 54 85 62 100 8 16 23 38 35 50 27 29
75 94 75 102 0 11 93 129 112 143 10 7 18 18 18 24 0 15 91 121 127 149 18 13
36 33 39 44 12 36 263 300 394 413 41 35 82 72 90 81 27 28 163 136 203 160
20 12 37 26 37 29 0 4 10 12 23 18 12 6 59 31 103 56 77 43 93 53 133 88 25
23 137 81 270 142 41 18 79 38 85 43 10 9 81 45 261 134 28 13 57 30 65 38 14
13 111 71 220 130 25 14 52 33 61 42 9 9 40 32 70 50 109 68 188 124 193 137
3 8 12 14 19 14 8 0 29 15 48 33 19 19 57 49 84 67 28 18 55 38 60 44 6 6 44
39 85 74 192 159 398 365 534 530 32 40 63 72 67 72 5 0 9 9 9 19 0 11 11 28
24 38 28 22 106 125 106 141 0 6 8 17 18 24 24 17 49 54 117 173 32 55 61 102
64 105 22 17 137 273 166 370 4 14 11 27 15 30 19 13 81 237 112 400 23 126
36 489 19 533 -10 26 -13 27 -78 26 -38 0 -120 -9 -183 -19z m-697 -900 c-2
-50 -34 -222 -43 -230 -3 -3 -20 -56 -38 -118 -39 -135 -108 -317 -127 -336
-8 -8 -26 -40 -40 -71 -14 -32 -41 -80 -60 -106 -19 -27 -35 -53 -35 -58 0 -9
-93 -91 -104 -91 -3 0 -26 -13 -52 -29 -25 -17 -59 -33 -75 -36 -16 -4 -29
-10 -29 -14 0 -16 -105 -41 -174 -41 -77 0 -166 20 -190 42 -8 7 -40 33 -70
58 -30 25 -61 59 -69 75 -51 100 -63 245 -32 365 16 62 40 120 55 130 4 3 19
25 35 50 36 58 102 127 140 146 17 8 45 27 63 42 19 16 64 44 100 62 37 18 69
36 72 40 8 12 108 60 124 60 8 0 16 4 18 9 4 12 227 80 298 91 30 4 96 7 145
6 l90 -1 -2 -45z"/>
<path d="M9994 12936 c-91 -40 -126 -207 -89 -431 15 -89 44 -205 71 -277 12
-32 12 -38 0 -38 -8 0 -39 -13 -69 -29 l-56 -29 -6 29 c-4 16 -10 29 -13 29
-4 0 -15 21 -25 48 -29 75 -100 225 -120 251 -24 34 -86 70 -119 71 -33 0 -68
-41 -68 -82 0 -16 7 -45 15 -66 24 -56 115 -191 134 -197 9 -3 47 -34 86 -70
l69 -64 -20 -23 c-36 -41 -84 -121 -102 -170 -9 -27 -20 -48 -24 -48 -5 0 -8
-6 -8 -14 0 -8 -6 -16 -12 -19 -10 -3 -13 -47 -13 -177 0 -130 3 -174 13 -178
6 -2 12 -15 12 -28 0 -13 5 -24 10 -24 6 0 10 -8 10 -17 0 -24 47 -168 65
-201 30 -55 52 -73 80 -66 26 6 125 100 125 118 0 16 64 106 75 106 9 0 35
-38 80 -119 23 -40 117 -108 164 -117 29 -6 32 -4 51 39 11 25 23 60 27 79 3
18 10 36 15 39 19 12 39 154 45 314 5 153 4 179 -16 255 -12 47 -26 87 -31 88
-6 2 -10 8 -10 14 0 19 -52 122 -76 151 -13 16 -24 32 -24 36 0 5 33 32 73 61
104 76 223 203 243 260 27 73 14 110 -43 129 -54 18 -108 2 -158 -47 -44 -42
-108 -181 -140 -304 l-18 -66 -56 21 c-31 11 -57 21 -58 22 -1 0 11 44 27 98
16 53 37 136 46 184 10 49 22 91 27 95 6 3 11 64 11 145 1 147 3 141 -56 204
-21 24 -35 29 -70 29 -24 -1 -57 -7 -74 -14z"/>
<path d="M1328 12858 c-9 -24 -27 -77 -42 -118 -25 -74 -74 -263 -95 -370 -6
-30 -23 -109 -38 -175 -26 -118 -26 -125 -26 -490 1 -356 2 -376 27 -515 15
-80 33 -185 41 -233 8 -49 24 -123 35 -165 12 -42 26 -99 31 -127 8 -43 37
-145 80 -285 7 -19 22 -59 35 -88 13 -29 24 -57 24 -63 0 -11 70 -144 105
-199 12 -19 35 -57 51 -84 16 -27 37 -63 48 -80 10 -17 29 -42 42 -55 13 -13
24 -29 24 -37 0 -7 4 -14 8 -16 4 -1 30 -32 57 -68 27 -36 55 -69 62 -73 7 -4
13 -13 13 -18 0 -6 29 -45 65 -87 36 -42 70 -83 76 -90 6 -7 34 -41 62 -75 28
-34 59 -71 67 -81 8 -11 25 -30 38 -43 12 -13 22 -27 22 -31 0 -5 16 -23 35
-42 19 -19 35 -40 35 -47 0 -8 6 -16 14 -19 8 -3 33 -32 56 -64 22 -33 47 -66
55 -74 8 -8 15 -18 15 -22 0 -4 11 -19 24 -33 14 -15 31 -37 38 -51 7 -14 26
-45 42 -70 154 -239 156 -240 132 -73 -44 307 -42 564 6 777 11 50 24 107 28
126 4 19 21 82 39 140 18 58 45 150 62 205 50 166 95 314 133 435 20 64 36
122 36 130 0 7 15 63 33 124 98 324 213 942 247 1327 12 135 12 482 0 519 l-8
25 -1 -26 c-1 -15 -17 -73 -36 -130 -19 -57 -35 -111 -35 -121 0 -35 -114
-278 -169 -363 -15 -22 -32 -49 -39 -60 -47 -75 -71 -114 -99 -156 -18 -27
-33 -51 -33 -54 0 -3 -12 -24 -27 -48 -15 -23 -35 -55 -44 -72 -9 -16 -33 -59
-53 -95 -51 -93 -206 -408 -206 -421 0 -6 -12 -36 -26 -67 -30 -65 -114 -318
-114 -343 0 -9 -9 -53 -20 -98 -77 -309 -63 -657 40 -973 10 -31 16 -59 13
-62 -12 -12 -33 -6 -33 10 0 9 -6 30 -14 47 -33 71 -48 114 -56 157 -5 25 -22
101 -39 170 -16 69 -44 195 -61 280 -17 85 -35 175 -41 200 -21 96 -95 337
-109 355 -5 6 -13 30 -20 54 -6 24 -25 71 -41 104 -16 33 -29 67 -29 74 0 7
-13 39 -30 70 -16 31 -30 61 -30 66 0 6 -16 45 -36 87 -128 269 -174 369 -174
380 0 6 -13 37 -30 70 -16 33 -30 65 -30 73 0 7 -12 38 -27 68 -14 30 -34 81
-44 114 -9 33 -28 94 -42 135 -27 82 -70 260 -87 354 -13 76 -13 472 0 550 5
33 8 61 6 63 -2 2 -10 -16 -18 -39z"/>
<path d="M18716 12880 c13 -46 16 -518 5 -588 -16 -100 -59 -277 -88 -362 -14
-41 -31 -97 -39 -125 -15 -53 -58 -161 -105 -263 -16 -34 -29 -67 -29 -73 0
-5 -16 -45 -36 -87 -20 -42 -51 -108 -69 -147 -18 -38 -49 -104 -69 -145 -20
-42 -36 -81 -36 -87 0 -5 -13 -35 -30 -66 -16 -31 -30 -63 -30 -70 0 -7 -13
-41 -29 -74 -16 -33 -35 -80 -41 -104 -7 -24 -15 -48 -19 -54 -12 -16 -42
-101 -56 -158 -7 -29 -25 -90 -39 -137 -14 -47 -26 -97 -26 -111 0 -14 -11
-71 -25 -127 -14 -55 -29 -132 -35 -171 -5 -39 -22 -115 -36 -168 -15 -54 -30
-116 -35 -138 -4 -22 -21 -74 -38 -115 -17 -41 -31 -81 -31 -87 0 -13 -22 -18
-33 -7 -3 3 2 29 12 58 24 69 59 220 76 336 29 186 15 443 -35 641 -11 45 -20
90 -20 100 0 26 -97 313 -120 357 -11 20 -20 42 -20 49 0 15 -151 324 -206
423 -20 36 -44 79 -53 95 -9 17 -29 49 -44 72 -15 24 -27 45 -27 48 0 3 -15
27 -32 54 -29 42 -53 81 -100 156 -7 11 -24 38 -39 60 -55 84 -169 328 -169
362 0 9 -16 65 -35 124 -19 60 -35 119 -36 131 -1 22 -1 22 -9 -2 -4 -14 -9
-106 -9 -205 -2 -313 26 -564 116 -1025 14 -74 30 -160 35 -190 8 -49 24 -116
81 -345 24 -94 103 -368 162 -555 18 -58 47 -154 65 -215 18 -60 47 -159 65
-220 111 -371 127 -607 69 -1029 -22 -165 -22 -165 132 74 16 25 35 56 42 70
7 14 24 36 38 51 13 14 24 29 24 33 0 4 7 14 15 22 8 8 33 41 55 74 23 32 48
61 56 64 8 3 14 11 14 19 0 7 16 28 35 47 19 19 35 37 35 42 0 4 10 18 23 31
12 13 29 32 37 43 8 10 39 47 67 81 28 34 57 70 65 78 22 28 64 78 102 121 20
23 36 46 36 52 0 6 6 15 13 19 7 4 35 37 62 73 27 36 53 67 57 68 4 2 8 9 8
16 0 8 11 24 24 37 23 23 31 35 90 135 16 27 37 61 46 75 25 36 110 198 110
209 0 5 11 33 24 62 13 29 29 69 35 88 37 116 64 213 76 265 7 33 24 105 38
160 13 55 30 132 36 170 6 39 23 138 38 220 25 144 26 164 26 515 0 358 0 367
-26 485 -15 66 -32 145 -38 175 -6 30 -24 107 -40 170 -16 63 -29 121 -29 128
0 12 -61 176 -81 217 -8 17 -8 16 -3 -5z"/>
<path d="M9785 10978 c-2 -7 -11 -67 -20 -133 -13 -97 -48 -313 -92 -562 -3
-18 -10 -33 -14 -33 -5 0 -9 -9 -9 -20 0 -11 -4 -20 -10 -20 -5 0 -10 -7 -10
-17 0 -9 -29 -134 -65 -278 -36 -145 -65 -269 -65 -278 0 -8 -4 -17 -9 -19 -4
-1 -46 -163 -91 -358 -46 -195 -87 -357 -91 -360 -5 -3 -13 -30 -20 -60 -23
-112 -135 -471 -150 -481 -9 -5 -34 -72 -121 -319 -23 -63 -44 -117 -48 -120
-9 -8 -83 -139 -104 -187 -11 -24 -22 -43 -26 -43 -4 0 -13 -14 -20 -31 -7
-17 -18 -36 -24 -42 -27 -28 -147 -336 -160 -409 -4 -21 -10 -38 -15 -38 -9 0
-31 -87 -57 -225 -27 -140 -25 -353 5 -485 22 -98 35 -138 50 -150 4 -3 22
-36 41 -75 19 -38 55 -97 79 -130 81 -110 369 -395 400 -395 4 0 21 -12 38
-27 17 -16 44 -39 59 -52 31 -25 173 -95 217 -106 15 -4 27 -10 27 -14 0 -9
116 -36 225 -52 44 -7 172 -13 285 -13 182 -1 222 2 360 27 85 15 157 32 158
37 2 6 11 10 19 10 42 0 259 80 273 100 3 4 23 17 44 28 22 12 42 25 45 30 9
12 150 112 158 112 10 0 253 235 253 244 0 7 79 117 91 126 20 16 83 177 101
259 29 134 29 363 -1 510 -25 128 -90 364 -102 371 -5 3 -20 37 -34 75 -30 82
-95 225 -110 242 -5 7 -15 18 -21 26 -20 24 -141 262 -154 302 -7 22 -16 42
-21 45 -4 3 -23 50 -42 105 -20 55 -52 145 -72 200 -21 55 -42 116 -48 135 -6
19 -14 37 -18 40 -15 12 -81 244 -130 455 -18 77 -35 142 -39 145 -3 3 -37
136 -74 295 -83 359 -88 379 -96 385 -7 4 -55 193 -75 290 -4 19 -11 37 -15
40 -9 5 -66 263 -76 345 -4 28 -11 52 -15 55 -5 4 -79 463 -79 495 0 3 -6 5
-13 5 -8 0 -24 -36 -41 -92 -15 -51 -31 -95 -36 -98 -7 -5 -102 -294 -135
-412 -20 -70 -38 -68 -55 5 -7 29 -37 142 -68 252 -30 110 -61 222 -68 249 -8
28 -18 52 -23 55 -4 3 -11 16 -15 29 -8 24 -24 29 -31 10z"/>
<path d="M3860 10541 c0 -4 -30 -11 -67 -15 -76 -8 -176 -30 -240 -53 -42 -15
-43 -17 -43 -59 0 -44 61 -242 78 -253 5 -3 29 -44 52 -91 48 -94 103 -178
132 -198 10 -7 18 -19 18 -25 0 -7 36 -51 80 -97 44 -47 97 -104 116 -127 19
-24 41 -43 48 -43 7 0 25 -13 41 -30 16 -16 33 -30 37 -30 5 0 24 -15 42 -34
19 -18 74 -59 123 -91 48 -32 93 -63 98 -70 12 -14 223 -134 273 -154 17 -7
32 -17 32 -21 0 -10 261 -126 327 -145 13 -3 29 -12 36 -19 14 -14 182 -77
327 -122 47 -14 87 -30 90 -34 3 -5 19 -12 35 -16 17 -4 32 -11 35 -15 7 -10
456 -120 590 -145 52 -10 97 -21 100 -25 3 -4 75 -19 160 -33 193 -32 490
-115 490 -137 0 -5 7 -9 16 -9 19 0 138 -47 254 -100 47 -22 95 -42 107 -45
13 -4 29 -12 36 -19 7 -8 49 -33 92 -56 81 -43 186 -107 195 -119 3 -3 24 -19
48 -35 24 -16 46 -35 50 -41 4 -7 27 -26 52 -44 124 -89 383 -346 448 -445 44
-68 91 -167 92 -193 0 -7 5 -13 10 -13 6 0 10 -8 10 -17 0 -30 12 -5 15 33 2
21 9 70 16 109 22 132 -7 584 -39 604 -6 3 -15 25 -21 49 -17 63 -117 267
-147 299 -14 15 -32 42 -41 60 -8 18 -19 33 -23 33 -8 0 -90 105 -90 115 0 3
-27 34 -61 68 -34 34 -71 78 -84 98 -23 35 -194 212 -220 226 -7 5 -48 40 -91
80 -101 91 -243 203 -260 203 -7 0 -17 6 -21 13 -9 15 -147 117 -158 117 -8 0
-73 48 -102 75 -12 12 -34 27 -50 35 -49 26 -134 81 -154 101 -10 10 -26 19
-34 19 -8 0 -15 4 -15 9 0 12 -114 79 -222 130 -47 23 -88 45 -90 49 -2 5 -77
43 -168 86 -90 42 -167 81 -170 86 -3 5 -23 15 -45 23 -22 9 -107 43 -190 76
-82 34 -155 61 -161 61 -7 0 -14 4 -16 9 -3 11 -355 129 -465 157 -40 10 -73
21 -73 25 0 4 -42 17 -92 29 -51 13 -95 26 -98 30 -12 16 -422 86 -572 97 -49
3 -88 10 -88 14 0 5 -88 9 -195 9 -107 0 -195 -4 -195 -9z m1289 -501 c41 -6
77 -14 80 -18 3 -4 31 -18 61 -31 71 -30 136 -83 169 -139 14 -24 33 -51 41
-60 18 -19 22 -208 4 -220 -6 -4 -18 -27 -28 -52 -31 -78 -86 -119 -211 -155
-112 -33 -251 -2 -368 81 -26 19 -50 34 -53 34 -6 0 -96 91 -218 220 -66 69
-126 144 -126 157 0 5 -13 22 -28 39 -41 41 -81 109 -74 121 17 26 590 44 751
23z"/>
<path d="M3071 10402 c11 -66 10 -332 -1 -422 -16 -128 -49 -319 -80 -460 -16
-74 -34 -160 -40 -190 -5 -30 -19 -95 -30 -145 -22 -93 -32 -171 -51 -410 -15
-189 10 -518 51 -670 12 -44 28 -103 35 -131 23 -87 76 -236 106 -298 16 -32
29 -62 29 -67 0 -5 16 -32 35 -59 19 -27 35 -53 35 -56 0 -4 15 -30 34 -58 18
-28 36 -65 39 -82 6 -31 6 -31 -41 19 -26 28 -59 62 -74 76 -16 14 -28 31 -28
37 0 6 -9 19 -21 30 -20 18 -95 127 -118 171 -6 12 -17 28 -25 36 -9 8 -27 37
-42 63 -14 27 -35 58 -45 70 -11 11 -19 25 -19 31 0 5 -15 30 -33 54 -18 24
-53 71 -77 104 -24 33 -52 69 -62 80 -9 11 -38 45 -64 75 -108 128 -173 198
-429 459 -359 366 -377 386 -579 621 -7 8 -35 46 -62 84 -27 38 -64 88 -81
112 -18 24 -33 49 -33 55 0 5 -8 18 -17 29 -16 17 -116 206 -134 255 -4 11
-17 41 -28 67 -12 26 -21 55 -21 65 0 10 -11 54 -25 98 -14 44 -28 102 -32
129 -5 45 -7 48 -16 25 -12 -30 -1 -578 13 -669 17 -107 59 -310 82 -390 11
-41 27 -97 34 -125 8 -27 28 -78 44 -113 17 -35 30 -67 30 -72 0 -26 166 -338
196 -368 8 -7 14 -19 14 -25 1 -7 14 -28 30 -47 17 -19 30 -38 30 -42 0 -7 28
-43 58 -74 6 -7 12 -17 12 -22 0 -5 16 -24 35 -43 19 -19 35 -38 35 -43 0 -5
15 -24 33 -41 17 -18 61 -65 97 -105 36 -39 91 -98 124 -129 32 -31 83 -80
112 -108 30 -29 57 -53 61 -53 4 0 21 -13 37 -29 70 -66 124 -111 135 -111 6
0 11 -4 11 -8 0 -5 29 -30 65 -57 36 -26 65 -51 65 -55 0 -5 10 -12 23 -15 12
-4 34 -19 49 -32 15 -14 35 -31 46 -37 56 -33 159 -105 171 -119 7 -10 18 -17
24 -17 5 0 32 -16 58 -35 27 -19 53 -35 57 -35 4 0 23 -13 42 -30 19 -16 39
-29 44 -30 5 0 29 -15 55 -33 25 -18 57 -38 71 -45 14 -7 39 -22 56 -35 17
-12 53 -35 80 -52 26 -16 62 -39 80 -50 18 -11 61 -37 96 -59 35 -21 65 -42
68 -46 3 -4 17 -13 31 -21 14 -8 59 -36 99 -64 40 -27 86 -58 103 -67 17 -9
33 -21 36 -26 3 -4 29 -23 56 -42 28 -18 60 -42 73 -53 39 -35 33 -21 -99 250
-55 111 -99 208 -99 215 0 7 -6 25 -14 39 -20 38 -56 146 -56 167 0 9 -13 76
-29 147 -16 72 -34 166 -40 210 -6 44 -20 136 -31 205 -11 69 -24 177 -29 240
-7 101 -22 257 -87 930 -8 85 -24 225 -35 310 -18 139 -32 226 -75 470 -17 93
-65 276 -105 395 -16 50 -34 107 -40 127 -5 21 -23 66 -39 100 -17 34 -30 69
-30 79 0 9 -6 22 -13 28 -11 9 -12 2 -6 -37z"/>
<path d="M15775 10443 c-33 -2 -62 -7 -65 -11 -3 -4 -79 -18 -170 -31 -91 -13
-167 -27 -170 -31 -3 -5 -52 -18 -110 -29 -180 -35 -535 -132 -550 -150 -3 -3
-34 -16 -70 -28 -221 -75 -384 -136 -396 -148 -8 -7 -30 -19 -50 -25 -52 -17
-297 -129 -304 -138 -4 -7 -125 -67 -280 -139 -44 -21 -74 -41 -111 -75 -11
-10 -22 -18 -25 -18 -7 0 -197 -112 -204 -120 -8 -10 -128 -90 -135 -90 -11 0
-93 -59 -132 -95 -21 -19 -41 -35 -45 -35 -4 0 -42 -24 -83 -52 -42 -29 -83
-57 -91 -63 -9 -5 -34 -27 -57 -48 -23 -21 -61 -53 -85 -70 -23 -18 -79 -67
-123 -109 -45 -43 -85 -78 -90 -78 -4 0 -19 -16 -33 -37 -14 -20 -57 -69 -96
-110 -39 -40 -99 -108 -133 -151 -76 -96 -86 -108 -114 -138 -32 -35 -75 -101
-107 -164 -16 -30 -32 -57 -37 -60 -17 -11 -68 -138 -94 -233 -41 -151 -59
-479 -34 -613 6 -32 12 -70 14 -84 1 -14 3 -36 4 -50 2 -18 6 -10 17 28 15 55
80 190 100 207 20 17 104 124 104 133 0 4 22 25 49 45 26 20 77 67 113 105 36
37 98 92 138 122 41 30 81 62 90 70 8 8 41 33 73 54 31 22 57 42 57 46 0 4 29
22 65 41 36 18 65 36 65 40 0 12 71 49 200 106 68 30 127 58 130 63 11 18 274
113 430 156 36 10 67 20 70 24 8 9 79 28 135 35 173 23 632 119 645 135 3 3
57 19 120 34 133 33 433 125 440 136 3 4 16 11 30 15 14 4 27 11 30 14 3 4 32
18 65 30 33 13 101 40 150 61 50 21 101 41 115 45 14 4 27 11 30 15 3 4 76 42
162 84 86 43 158 81 160 84 4 9 134 92 144 92 11 0 108 72 117 86 4 7 24 23
45 35 20 12 62 43 92 69 30 26 64 50 75 54 24 9 165 163 176 192 4 12 14 24
22 27 18 7 93 105 132 172 16 28 34 55 41 60 19 15 103 206 125 285 27 98 25
128 -6 136 -14 3 -25 10 -25 14 0 10 -88 36 -155 46 -27 4 -53 12 -57 17 -7
11 -414 19 -533 10z m-118 -518 c21 -7 21 -8 -18 -65 -22 -32 -65 -85 -95
-117 -31 -32 -64 -74 -74 -93 -29 -55 -208 -233 -273 -271 -32 -19 -67 -42
-78 -52 -44 -41 -111 -62 -194 -61 -143 0 -233 51 -289 162 -39 77 -50 161
-31 230 22 77 69 156 100 170 14 6 25 16 25 21 0 22 201 68 365 85 60 6 537
-2 562 -9z"/>
<path d="M16977 10433 c-4 -3 -7 -14 -7 -23 0 -9 -13 -44 -30 -78 -16 -34 -34
-79 -39 -100 -5 -20 -23 -77 -39 -127 -42 -121 -89 -295 -101 -375 -6 -36 -20
-110 -32 -165 -11 -55 -25 -138 -29 -185 -5 -47 -23 -188 -39 -315 -17 -126
-31 -257 -31 -290 0 -33 -11 -170 -25 -305 -14 -135 -30 -299 -35 -365 -6 -66
-25 -217 -42 -335 -17 -118 -34 -244 -39 -280 -4 -36 -19 -111 -33 -167 -14
-56 -26 -111 -26 -122 0 -23 -35 -129 -56 -170 -8 -14 -14 -32 -14 -39 0 -7
-44 -104 -99 -215 -132 -271 -138 -285 -98 -250 12 11 45 35 72 53 28 19 53
38 56 42 3 5 19 17 36 26 17 9 63 40 103 67 40 28 85 56 99 64 14 8 28 17 31
21 3 4 34 25 70 46 36 21 71 44 78 51 7 7 17 13 21 13 9 0 129 77 172 110 15
11 35 23 45 27 11 4 40 22 65 40 26 18 50 33 55 33 5 1 25 14 44 30 19 17 38
30 42 30 4 0 30 16 57 35 26 19 53 35 58 35 6 0 17 7 24 17 12 14 115 86 171
119 11 6 31 23 46 37 15 13 37 28 50 32 12 3 22 10 22 15 0 4 29 29 65 55 36
27 65 52 65 57 0 4 5 8 11 8 11 0 65 45 135 111 16 16 33 29 37 29 4 0 31 24
61 53 29 28 80 77 112 108 33 31 91 92 129 134 39 43 82 90 98 104 15 14 27
30 27 36 0 5 16 25 35 44 19 19 35 38 35 42 0 8 27 43 58 75 6 7 12 16 12 21
0 5 13 24 30 43 16 19 29 40 30 47 0 6 6 18 14 25 31 32 196 341 196 369 0 5
12 33 27 62 48 93 110 330 153 583 24 141 40 680 22 724 l-11 25 0 -25 c-1
-14 -11 -61 -22 -105 -11 -44 -27 -104 -34 -133 -13 -51 -33 -104 -55 -144 -6
-10 -10 -24 -10 -32 0 -9 -13 -37 -28 -63 -16 -26 -39 -69 -52 -96 -13 -26
-32 -56 -42 -67 -10 -10 -18 -24 -18 -29 0 -6 -15 -31 -32 -55 -18 -24 -55
-74 -82 -112 -54 -75 -55 -76 -115 -145 -23 -25 -41 -49 -41 -53 0 -3 -13 -19
-29 -34 -15 -15 -64 -65 -107 -112 -43 -47 -200 -209 -349 -361 -282 -287
-364 -377 -498 -540 -48 -60 -167 -224 -167 -231 0 -5 -16 -30 -35 -57 -19
-26 -35 -53 -35 -58 0 -5 -8 -18 -18 -29 -10 -11 -27 -33 -37 -49 -60 -97
-106 -163 -124 -179 -12 -11 -21 -24 -21 -30 0 -6 -12 -23 -27 -37 -16 -14
-49 -48 -75 -76 -47 -50 -47 -50 -41 -19 3 17 21 54 39 82 19 28 34 54 34 58
0 3 16 29 35 56 19 27 35 54 35 59 0 5 13 35 29 67 30 62 83 211 106 298 7 28
23 87 35 131 41 152 67 486 51 672 -20 243 -30 326 -51 413 -11 47 -25 112
-31 145 -6 33 -22 107 -36 165 -14 58 -29 134 -33 170 -5 36 -19 119 -32 185
-19 103 -22 153 -23 353 0 127 0 232 -1 232 0 0 -4 -3 -7 -7z"/>
<path d="M3650 8645 c0 -6 7 -20 15 -33 9 -12 24 -45 34 -74 10 -29 30 -84 44
-123 34 -93 89 -289 97 -345 4 -25 18 -103 32 -175 15 -71 33 -179 43 -240 9
-60 25 -159 35 -220 11 -60 23 -137 28 -170 50 -354 202 -830 309 -971 12 -17
23 -34 23 -38 0 -11 98 -151 120 -171 11 -10 20 -22 20 -27 0 -6 11 -22 24
-36 155 -173 248 -271 345 -363 97 -92 111 -109 86 -103 -16 3 -54 21 -82 40
-29 19 -56 34 -59 34 -4 0 -23 12 -43 28 -20 15 -43 32 -52 37 -37 22 -116 80
-154 113 -22 19 -53 45 -70 58 -16 14 -51 42 -76 63 -26 21 -80 60 -120 87
-41 27 -82 57 -91 66 -10 10 -23 18 -29 18 -6 0 -25 11 -42 24 -18 13 -51 35
-74 48 -155 86 -215 119 -353 189 -85 43 -249 124 -365 179 -277 132 -524 260
-564 291 -13 11 -28 19 -33 19 -4 0 -27 12 -51 27 -23 15 -54 34 -68 43 -69
40 -159 103 -159 110 0 5 -9 12 -20 15 -11 4 -37 22 -58 41 -20 19 -41 34 -45
34 -5 0 -20 14 -34 30 -13 17 -28 30 -32 30 -21 0 -291 285 -291 307 0 6 -10
18 -21 29 -35 31 -114 160 -174 283 -20 40 -38 71 -42 68 -11 -11 42 -212 97
-372 32 -95 155 -363 171 -375 3 -3 17 -25 29 -50 12 -25 35 -63 49 -85 15
-22 31 -47 36 -56 25 -41 86 -128 97 -140 7 -8 21 -25 29 -39 9 -14 26 -37 37
-50 12 -14 49 -59 84 -100 99 -118 116 -137 228 -252 58 -59 110 -108 117
-108 7 0 13 -4 13 -9 0 -12 151 -144 266 -234 23 -17 58 -45 77 -61 19 -15 66
-49 104 -75 37 -25 84 -58 104 -73 20 -16 39 -28 44 -28 4 0 30 -16 56 -35 27
-19 53 -35 59 -35 5 0 32 -13 60 -30 28 -16 55 -30 60 -30 5 0 36 -13 67 -30
55 -28 84 -39 228 -89 87 -29 292 -87 350 -98 28 -5 95 -19 150 -31 104 -23
446 -85 550 -100 99 -15 333 -62 445 -89 58 -14 128 -30 155 -36 28 -5 83 -20
123 -34 40 -14 75 -23 78 -20 3 2 -10 17 -28 32 -43 35 -174 165 -215 212 -18
21 -46 54 -63 73 -17 19 -33 43 -36 52 -3 10 -9 18 -14 18 -5 0 -24 26 -44 58
-19 31 -44 68 -55 81 -12 13 -21 28 -21 33 0 6 -8 22 -19 36 -16 23 -90 158
-111 202 -4 8 -21 44 -39 80 -17 36 -31 70 -31 76 0 7 -16 44 -35 83 -19 39
-35 77 -35 85 0 9 -11 39 -24 68 -13 29 -29 71 -36 93 -7 22 -27 81 -45 130
-51 146 -75 216 -95 280 -10 33 -39 119 -65 190 -26 72 -56 155 -67 185 -10
30 -32 83 -48 118 -17 35 -30 69 -30 77 0 8 -13 37 -30 63 -16 27 -30 57 -30
66 0 10 -16 41 -35 70 -19 29 -35 58 -35 64 0 7 -16 36 -35 66 -19 30 -35 59
-35 65 0 5 -6 16 -13 23 -7 7 -30 41 -50 76 -20 34 -46 72 -57 84 -11 12 -20
25 -20 29 0 10 -86 137 -111 165 -11 11 -19 25 -19 31 0 5 -10 18 -21 29 -12
10 -32 35 -44 54 -12 19 -34 48 -49 63 -14 15 -26 32 -26 36 0 4 -13 21 -30
37 -16 16 -30 34 -30 40 0 5 -16 25 -35 44 -19 19 -35 38 -35 42 0 5 -13 23
-29 41 -16 17 -43 48 -60 67 -17 19 -31 30 -31 25z"/>
<path d="M16360 8598 c-23 -29 -48 -57 -56 -61 -8 -4 -14 -14 -14 -21 0 -6
-16 -27 -35 -46 -19 -19 -35 -39 -35 -44 0 -6 -14 -24 -30 -40 -17 -16 -30
-35 -30 -43 0 -7 -4 -13 -8 -13 -5 0 -21 -19 -38 -41 -16 -23 -42 -58 -59 -78
-16 -20 -34 -43 -40 -52 -5 -9 -36 -54 -67 -99 -32 -45 -58 -85 -58 -89 0 -4
-9 -17 -20 -29 -11 -12 -37 -50 -57 -84 -20 -35 -43 -69 -50 -76 -7 -7 -13
-18 -13 -23 0 -6 -16 -35 -35 -65 -19 -30 -35 -59 -35 -66 0 -6 -16 -35 -35
-64 -19 -29 -35 -60 -35 -70 0 -9 -13 -39 -30 -66 -16 -26 -30 -54 -30 -61 0
-6 -15 -48 -34 -92 -52 -122 -150 -393 -189 -520 -15 -50 -22 -72 -82 -240
-18 -49 -40 -115 -50 -145 -10 -30 -21 -59 -25 -65 -5 -5 -15 -33 -23 -61 -8
-28 -29 -79 -46 -114 -17 -34 -31 -67 -31 -74 0 -6 -14 -40 -31 -76 -18 -36
-35 -72 -39 -80 -26 -55 -105 -198 -116 -211 -8 -8 -14 -20 -14 -26 0 -5 -9
-21 -21 -34 -11 -13 -36 -50 -55 -81 -20 -32 -39 -58 -44 -58 -5 0 -12 -9 -15
-21 -4 -11 -19 -33 -33 -49 -15 -16 -43 -47 -62 -70 -44 -50 -174 -179 -218
-215 -18 -15 -31 -30 -28 -32 3 -3 38 6 78 20 40 14 96 29 123 34 28 6 97 22
155 36 120 29 353 76 450 89 89 13 423 74 545 100 55 12 123 26 150 31 58 11
263 69 350 98 144 50 173 61 228 89 31 17 62 30 67 30 5 0 32 13 60 30 28 17
55 30 60 30 6 0 32 16 59 35 26 19 52 35 57 35 5 0 25 13 44 28 19 15 68 50
108 77 41 27 87 62 105 77 17 16 34 28 37 28 4 0 21 12 38 28 17 15 50 43 73
62 207 170 401 361 550 542 33 40 69 84 81 98 11 13 28 36 37 50 8 14 22 31
29 39 11 12 72 99 97 140 5 9 21 34 36 56 14 22 37 60 49 85 12 25 26 47 29
50 6 5 71 135 121 245 12 28 31 75 41 105 10 30 29 86 43 123 14 37 26 77 26
89 0 11 9 52 21 90 30 103 19 116 -25 28 -63 -128 -140 -253 -175 -284 -11
-11 -21 -23 -21 -29 0 -22 -270 -307 -291 -307 -4 0 -19 -13 -32 -30 -14 -16
-29 -30 -34 -30 -4 0 -25 -15 -45 -34 -21 -19 -47 -37 -58 -41 -11 -3 -20 -10
-20 -15 0 -7 -90 -70 -159 -110 -14 -9 -45 -28 -68 -43 -24 -15 -47 -27 -51
-27 -5 0 -20 -8 -33 -19 -40 -31 -287 -159 -564 -291 -235 -112 -480 -236
-598 -302 -43 -23 -90 -50 -105 -58 -15 -8 -49 -30 -75 -48 -26 -17 -52 -32
-58 -32 -5 0 -17 -8 -27 -18 -9 -9 -50 -39 -91 -66 -40 -27 -94 -66 -120 -87
-25 -21 -59 -49 -76 -63 -16 -13 -48 -39 -70 -58 -37 -32 -115 -89 -154 -113
-9 -5 -31 -22 -49 -37 -18 -16 -37 -28 -43 -28 -5 0 -33 -15 -62 -34 -28 -19
-65 -37 -82 -41 -25 -5 -11 12 86 104 97 92 190 190 345 363 13 14 24 30 24
36 0 5 9 17 20 27 22 20 120 160 120 171 0 4 11 21 23 38 23 30 117 217 117
232 0 4 13 42 29 83 60 156 152 534 171 701 4 36 21 148 39 250 17 102 37 223
45 270 36 217 92 444 143 585 57 156 67 181 81 203 30 46 2 32 -38 -20z"/>
<path d="M5195 8523 c-160 -13 -417 -51 -425 -63 -3 -4 -39 -15 -80 -25 -92
-22 -193 -57 -282 -97 -50 -23 -68 -36 -68 -50 0 -31 100 -216 126 -233 13 -8
24 -20 24 -26 0 -22 117 -141 197 -201 45 -34 83 -65 83 -68 0 -4 19 -15 43
-26 23 -10 63 -31 90 -46 26 -15 80 -41 119 -58 40 -17 75 -35 78 -40 15 -24
457 -160 520 -160 11 0 20 -4 20 -9 0 -4 15 -11 33 -14 432 -76 552 -88 1027
-97 374 -7 402 -9 525 -34 72 -15 132 -32 133 -37 2 -5 14 -9 27 -9 13 0 25
-4 27 -8 2 -4 53 -23 113 -41 118 -37 287 -100 295 -112 3 -3 33 -22 68 -41
35 -20 99 -70 142 -112 43 -42 81 -76 84 -76 8 0 -5 113 -13 120 -3 3 -15 31
-26 64 -10 32 -24 64 -30 70 -10 11 -38 66 -84 167 -12 25 -36 63 -55 84 -19
21 -40 50 -47 64 -24 47 -82 115 -219 251 -130 131 -219 210 -235 210 -8 0
-79 55 -108 83 -10 10 -37 26 -60 36 -23 10 -53 29 -67 42 -14 13 -48 35 -75
49 -28 14 -54 30 -60 37 -11 13 -180 94 -280 134 -33 13 -63 27 -66 32 -16 21
-521 167 -580 167 -10 0 -19 4 -21 9 -4 12 -245 47 -412 61 -118 9 -385 11
-481 3z m407 -294 c100 -27 133 -61 144 -145 9 -75 -2 -169 -24 -213 -34 -65
-165 -105 -272 -83 -74 16 -178 62 -242 107 -26 19 -51 35 -56 36 -10 1 -152
164 -152 175 0 20 175 100 285 129 79 21 225 19 317 -6z"/>
<path d="M14450 8423 c-19 -1 -84 -8 -145 -14 -214 -20 -625 -104 -633 -129
-2 -6 -12 -10 -21 -10 -39 0 -431 -146 -431 -160 0 -4 -32 -22 -71 -39 -39
-17 -79 -39 -89 -49 -10 -9 -44 -30 -76 -46 -31 -16 -65 -37 -74 -46 -9 -9
-47 -34 -86 -55 -73 -41 -164 -105 -164 -116 0 -3 -19 -19 -42 -34 -52 -34
-284 -260 -303 -295 -7 -14 -28 -41 -47 -60 -50 -51 -80 -96 -122 -180 -20
-41 -43 -80 -51 -86 -7 -5 -22 -30 -31 -55 -10 -24 -21 -46 -24 -49 -25 -18
-68 -165 -70 -238 0 -12 105 71 166 132 45 44 196 117 318 153 28 8 53 19 56
23 8 13 169 57 330 92 144 30 149 30 565 38 300 5 420 10 423 19 2 6 25 11 53
11 27 0 49 5 49 10 0 6 15 10 33 10 128 0 546 81 810 157 9 3 17 9 17 13 0 4
19 12 43 19 41 12 162 61 259 103 26 12 56 29 67 39 10 9 40 27 67 39 27 12
70 38 97 56 26 19 50 34 55 34 15 1 215 203 249 252 20 28 49 81 66 117 17 36
37 72 44 79 28 28 13 47 -65 82 -42 19 -79 38 -82 42 -16 22 -278 87 -450 113
-208 30 -530 44 -690 28z m355 -279 c49 -15 95 -32 101 -39 7 -7 39 -22 71
-35 32 -13 66 -31 75 -41 9 -9 23 -19 30 -21 26 -9 -139 -169 -222 -215 -25
-14 -47 -29 -50 -33 -11 -17 -99 -54 -155 -66 -64 -14 -120 -7 -203 23 -45 17
-102 81 -102 115 0 10 -4 18 -10 18 -6 0 -10 30 -10 70 0 40 4 70 10 70 6 0
10 10 10 21 0 12 17 44 37 70 28 37 48 52 82 63 110 35 215 35 336 0z"/>
<path d="M4920 6768 c0 -7 16 -33 35 -57 19 -24 35 -50 35 -57 0 -8 4 -14 8
-14 7 0 27 -33 116 -193 34 -60 162 -308 249 -482 33 -66 68 -131 79 -144 10
-13 18 -30 18 -37 0 -8 16 -37 35 -64 19 -27 35 -54 35 -59 0 -8 79 -131 105
-163 7 -9 19 -27 26 -40 7 -13 22 -34 35 -48 12 -14 54 -61 92 -106 39 -45 96
-103 128 -130 31 -27 65 -57 76 -66 10 -10 22 -18 26 -18 5 0 23 -13 42 -30
18 -16 42 -33 53 -36 11 -4 25 -10 31 -15 27 -23 88 -59 99 -59 7 0 43 -16 81
-35 37 -19 75 -35 82 -35 8 0 68 -16 133 -35 65 -19 126 -35 137 -35 10 0 52
-16 93 -34 l74 -34 -44 -6 c-57 -8 -235 15 -369 48 -164 40 -472 86 -641 96
-85 5 -305 21 -489 35 -184 14 -398 30 -475 35 -135 8 -258 24 -435 55 -47 9
-112 20 -145 26 -174 31 -460 126 -615 204 -75 38 -124 66 -165 94 -25 17 -49
31 -54 31 -4 0 -23 14 -41 30 -18 17 -37 30 -42 30 -11 0 -53 38 -180 159 -54
52 -98 90 -98 83 0 -6 5 -14 11 -18 6 -3 19 -25 30 -48 22 -47 78 -137 109
-175 11 -14 57 -73 102 -131 92 -118 268 -297 385 -390 43 -35 82 -69 86 -76
4 -8 14 -14 20 -14 7 0 27 -13 45 -30 18 -16 38 -30 43 -30 5 0 22 -11 36 -24
14 -13 37 -30 52 -37 14 -7 40 -23 57 -35 37 -27 82 -53 194 -112 47 -24 89
-48 95 -53 5 -5 16 -9 25 -9 8 0 42 -14 75 -31 33 -17 83 -38 110 -46 28 -8
55 -18 60 -23 21 -15 312 -97 376 -105 19 -3 90 -12 159 -22 269 -38 767 -18
1085 44 72 14 157 30 190 35 33 5 121 25 195 44 74 19 142 34 152 34 9 0 69
15 135 33 65 19 141 39 168 44 28 6 86 21 130 33 332 91 443 116 570 130 120
13 234 36 215 43 -8 3 -67 18 -130 32 -63 15 -153 38 -200 52 -47 13 -104 29
-128 34 -23 4 -75 22 -115 39 -39 16 -77 30 -84 30 -12 0 -118 46 -193 84 -48
24 -105 53 -132 67 -26 13 -144 86 -193 119 -91 61 -246 197 -466 410 -43 41
-128 122 -189 180 -61 58 -153 147 -204 198 -51 50 -96 92 -99 92 -4 0 -37 30
-74 66 -95 93 -211 197 -358 320 -22 18 -53 45 -70 59 -16 14 -49 41 -71 60
-23 19 -46 35 -52 35 -6 0 -12 4 -14 8 -1 5 -31 29 -65 54 -34 25 -70 53 -78
62 -9 9 -20 16 -25 16 -5 0 -15 6 -22 13 -32 31 -78 58 -78 45z"/>
<path d="M15105 6757 c-16 -12 -36 -27 -43 -34 -6 -6 -21 -15 -32 -18 -11 -3
-20 -10 -20 -14 0 -5 -27 -27 -60 -50 -33 -23 -66 -48 -74 -56 -8 -8 -18 -15
-22 -15 -3 0 -25 -16 -48 -35 -22 -19 -54 -46 -71 -60 -16 -14 -48 -41 -70
-59 -67 -56 -228 -196 -265 -231 -19 -18 -66 -61 -103 -96 -38 -35 -111 -104
-162 -154 -52 -49 -144 -137 -205 -195 -61 -58 -146 -139 -189 -180 -260 -252
-403 -374 -520 -445 -18 -11 -58 -37 -89 -57 -31 -21 -63 -38 -70 -38 -8 0
-26 -8 -40 -18 -15 -10 -43 -25 -62 -34 -137 -65 -191 -88 -203 -88 -7 0 -45
-14 -84 -30 -40 -17 -92 -35 -115 -39 -24 -5 -81 -21 -128 -34 -47 -14 -137
-37 -200 -52 -63 -14 -122 -29 -130 -32 -19 -7 95 -30 215 -43 127 -14 238
-39 570 -130 44 -12 103 -27 130 -33 28 -5 103 -25 168 -44 66 -18 126 -33
135 -33 10 0 78 -15 152 -34 74 -19 162 -39 195 -44 33 -5 119 -21 190 -35
318 -62 816 -82 1085 -44 69 10 140 19 159 22 64 8 355 90 376 105 6 5 33 15
60 23 28 8 77 29 110 46 33 17 65 31 72 31 7 0 35 14 63 30 28 17 55 30 60 30
5 0 34 16 64 35 30 19 58 35 62 35 3 0 27 15 53 33 25 18 58 39 72 46 15 7 38
24 52 37 14 13 31 24 36 24 5 0 25 14 43 30 18 17 38 30 45 30 6 0 16 6 20 13
4 7 42 40 83 73 105 85 294 274 370 369 35 44 69 85 77 91 7 6 13 16 13 23 0
6 9 20 20 31 26 26 94 133 119 186 11 23 24 45 30 48 6 4 11 12 11 18 0 7 -44
-31 -98 -83 -124 -118 -169 -159 -179 -159 -5 -1 -24 -14 -43 -30 -19 -17 -38
-30 -42 -30 -4 0 -28 -14 -53 -31 -93 -63 -265 -146 -390 -189 -130 -45 -306
-94 -390 -109 -33 -6 -98 -17 -145 -26 -177 -31 -300 -47 -435 -55 -77 -5
-291 -21 -475 -35 -184 -14 -404 -30 -489 -35 -169 -10 -477 -56 -641 -96
-134 -33 -312 -56 -369 -48 l-44 6 74 34 c41 18 83 34 93 34 11 0 72 16 137
35 65 19 125 35 133 35 7 0 45 16 82 35 38 19 74 35 81 35 11 0 72 36 99 59 6
5 20 11 31 15 11 3 35 20 53 36 19 17 37 30 42 30 4 0 16 8 26 18 11 9 45 39
76 66 50 42 102 98 227 244 16 19 29 38 29 42 0 5 6 15 13 22 18 18 105 153
135 208 13 25 30 52 38 61 8 8 14 22 14 31 0 8 8 26 18 39 10 13 46 78 79 144
105 207 219 428 249 482 89 160 109 193 116 193 4 0 8 6 8 13 0 8 16 35 36 60
42 54 42 75 -1 44z"/>
<path d="M8949 4709 c-75 -4 -149 -9 -165 -13 -16 -3 -69 -10 -118 -16 -145
-16 -484 -102 -669 -171 -43 -16 -85 -29 -94 -29 -8 0 -51 -16 -96 -35 -44
-19 -86 -35 -92 -35 -6 0 -33 -11 -61 -24 -27 -13 -70 -31 -97 -40 -26 -9 -74
-29 -107 -46 -33 -16 -64 -30 -70 -30 -6 0 -38 -13 -72 -30 -33 -16 -64 -30
-70 -30 -5 0 -42 -16 -82 -35 -40 -19 -77 -35 -82 -35 -5 0 -40 -16 -78 -35
-37 -19 -74 -35 -80 -35 -7 0 -38 -13 -70 -30 -32 -16 -74 -34 -94 -41 -21 -6
-65 -24 -100 -40 -35 -16 -71 -29 -80 -29 -9 0 -51 -12 -92 -26 -41 -14 -100
-29 -130 -34 -30 -5 -109 -19 -175 -30 -219 -39 -532 -41 -734 -5 -47 8 -117
20 -156 26 -38 6 -112 24 -162 40 -51 16 -99 29 -106 29 -29 0 -321 132 -377
170 -33 23 -99 60 -107 60 -7 0 14 -23 77 -85 22 -22 40 -45 40 -52 0 -6 10
-17 23 -26 12 -8 45 -36 74 -63 76 -72 245 -204 259 -204 5 0 23 -12 39 -26
17 -14 55 -39 85 -55 30 -16 63 -34 73 -39 9 -6 25 -14 35 -20 9 -5 37 -21 61
-35 24 -14 49 -25 55 -25 7 0 41 -16 76 -35 36 -19 71 -35 78 -35 7 0 47 -16
88 -35 41 -19 79 -35 86 -35 6 0 42 -11 80 -25 38 -14 92 -29 121 -34 29 -5
99 -19 157 -31 214 -43 609 -36 807 16 30 8 66 14 81 14 15 0 59 10 97 21 39
12 95 27 125 34 30 7 90 26 133 44 43 17 83 31 89 31 6 0 44 16 84 35 40 19
76 35 80 35 13 0 289 143 337 175 16 10 41 25 57 34 15 9 60 39 101 66 40 28
85 58 100 67 16 9 37 26 49 38 11 11 27 20 35 20 7 0 18 6 22 13 4 7 36 33 71
56 34 24 62 47 62 52 0 4 10 11 23 14 12 4 33 17 47 30 14 12 48 37 75 56 28
18 56 39 63 46 7 7 19 13 26 13 7 0 24 9 37 21 13 12 49 34 79 50 30 17 66 36
80 44 104 57 268 117 393 146 67 14 443 9 471 -8 18 -10 16 -13 -22 -32 -23
-12 -46 -21 -53 -21 -25 0 -415 -196 -487 -245 -20 -14 -40 -25 -45 -25 -5 0
-32 -16 -61 -35 -29 -19 -56 -35 -60 -35 -3 0 -28 -16 -55 -35 -26 -19 -53
-35 -58 -35 -5 0 -18 -8 -29 -18 -10 -9 -64 -46 -118 -81 -54 -35 -107 -72
-117 -82 -11 -11 -26 -19 -34 -19 -8 0 -15 -4 -15 -9 0 -5 -24 -25 -54 -45
-29 -19 -64 -46 -77 -60 -13 -14 -29 -26 -36 -26 -6 0 -24 -13 -40 -30 -15
-16 -33 -30 -39 -30 -6 0 -18 -7 -25 -17 -8 -9 -45 -41 -84 -72 -73 -58 -357
-303 -411 -356 -18 -16 -50 -48 -72 -70 l-41 -39 37 -41 c37 -42 149 -144 216
-198 21 -18 52 -44 68 -59 16 -16 32 -28 35 -28 3 0 143 137 310 305 167 168
306 305 309 305 6 0 98 87 174 164 19 20 41 36 47 36 7 0 17 8 22 18 9 16 110
104 260 224 25 21 55 45 66 55 23 21 125 97 178 133 20 14 37 28 37 33 0 4 7
7 14 7 8 0 27 11 42 25 15 14 51 39 80 55 28 17 57 37 64 45 7 8 19 15 27 15
8 0 29 11 46 24 59 45 332 176 367 176 35 0 308 -131 367 -176 17 -13 38 -24
46 -24 8 0 20 -7 27 -15 7 -8 36 -28 64 -45 29 -16 65 -41 80 -55 15 -14 34
-25 42 -25 7 0 14 -3 14 -7 0 -5 17 -19 37 -33 53 -36 155 -112 178 -133 11
-10 41 -34 66 -55 150 -120 251 -208 260 -224 5 -10 15 -18 22 -18 6 0 28 -16
47 -36 76 -77 168 -164 174 -164 3 0 142 -137 309 -305 167 -168 307 -305 310
-305 3 0 19 12 35 28 16 15 47 41 68 59 67 54 179 156 216 198 l37 41 -37 36
c-127 124 -351 321 -487 429 -38 31 -76 63 -84 72 -7 10 -19 17 -25 17 -6 0
-24 14 -39 30 -16 17 -34 30 -40 30 -7 0 -23 12 -36 26 -13 14 -48 41 -77 60
-30 20 -54 40 -54 45 0 5 -7 9 -15 9 -8 0 -23 8 -34 19 -10 10 -60 45 -112 79
-52 34 -105 70 -119 81 -14 12 -28 21 -33 21 -4 0 -30 16 -57 35 -27 19 -53
35 -57 35 -5 0 -30 16 -57 35 -27 19 -53 35 -58 35 -5 0 -27 12 -51 27 -35 23
-155 86 -292 156 -82 41 -184 87 -194 87 -7 0 -30 9 -53 21 -38 19 -40 22 -22
32 28 17 404 22 471 8 125 -29 289 -89 393 -146 14 -8 50 -27 80 -44 30 -16
66 -38 79 -50 13 -12 30 -21 37 -21 7 0 19 -6 26 -13 7 -7 40 -32 73 -54 34
-22 67 -48 74 -57 7 -9 19 -16 27 -16 7 0 21 -8 31 -19 10 -10 43 -35 73 -56
30 -21 59 -44 63 -52 4 -7 15 -13 22 -13 8 0 24 -9 35 -20 12 -12 33 -29 49
-38 15 -9 60 -39 100 -67 41 -27 86 -57 101 -66 16 -9 41 -24 57 -34 55 -37
313 -169 352 -180 14 -4 45 -18 69 -31 25 -13 64 -29 86 -35 23 -6 60 -20 84
-30 23 -11 75 -28 115 -39 369 -97 486 -115 777 -114 204 0 249 3 345 23 61
12 133 26 160 31 28 4 82 20 121 34 39 14 76 26 82 26 7 0 45 16 86 35 41 19
81 35 88 35 7 0 42 16 78 35 35 19 69 35 76 35 6 0 31 11 55 25 24 14 51 29
59 34 8 4 26 14 40 21 79 43 142 81 161 99 13 12 27 21 32 21 21 0 287 218
346 283 9 9 32 35 51 56 75 82 82 91 76 91 -4 0 -39 -19 -79 -43 -117 -70
-369 -187 -404 -187 -7 0 -55 -13 -106 -29 -50 -16 -123 -34 -162 -40 -38 -6
-109 -18 -156 -26 -202 -36 -515 -34 -737 5 -64 12 -142 25 -172 30 -30 5 -89
20 -130 34 -41 14 -83 26 -92 26 -9 0 -45 13 -80 29 -35 16 -79 34 -100 40
-20 7 -62 25 -94 41 -32 17 -63 30 -70 30 -6 0 -43 16 -80 35 -38 19 -73 35
-78 35 -5 0 -42 16 -82 35 -40 19 -77 35 -82 35 -6 0 -37 14 -70 30 -34 17
-66 30 -72 30 -6 0 -37 14 -70 30 -33 17 -81 37 -107 46 -27 9 -70 27 -97 40
-28 13 -55 24 -61 24 -6 0 -48 16 -92 35 -45 19 -88 35 -96 35 -9 0 -51 13
-94 29 -149 55 -506 151 -618 166 -231 30 -321 36 -499 36 -111 0 -235 -5
-276 -11 -41 -6 -115 -15 -163 -20 -88 -9 -293 -53 -414 -90 -61 -18 -65 -18
-125 0 -120 36 -327 81 -410 90 -45 5 -121 13 -168 19 -115 14 -277 17 -441
10z"/>
</g>
</svg>
